<svg xmlns="http://www.w3.org/2000/svg" version="1.1" xmlns:xlink="http://www.w3.org/1999/xlink" xmlns:svgjs="http://svgjs.com/svgjs" width="1440" height="560" preserveAspectRatio="none" viewBox="0 0 1440 560"><g mask="url(&quot;#SvgjsMask1008&quot;)" fill="none"><path d="M624.56 648.35C766.39 634.56 859.49 334.37 1100.02 333.94 1340.54 333.51 1449.43 499.49 1575.47 501.94" stroke="rgba(227, 227, 227, 1)" stroke-width="2"></path><path d="M274.17 608C451.44 603.86 586.27 363.73 937.59 357.12 1288.91 350.51 1426.85 146.9 1601.01 144.32" stroke="rgba(227, 227, 227, 1)" stroke-width="2"></path><path d="M613.17 630.72C722.48 629.78 806.95 525.69 1035.85 518.71 1264.74 511.73 1337.19 286.16 1458.52 277.91" stroke="rgba(227, 227, 227, 1)" stroke-width="2"></path><path d="M286.71 581.37C393.37 578.74 484.72 428 684.92 427.89 885.12 427.78 884.02 497.89 1083.13 497.89 1282.23 497.89 1380.26 428.16 1481.34 427.89" stroke="rgba(227, 227, 227, 1)" stroke-width="2"></path><path d="M678.36 624.89C827.4 612.79 931.2 312.69 1188.38 312.41 1445.55 312.13 1563.27 489.03 1698.39 491.61" stroke="rgba(227, 227, 227, 1)" stroke-width="2"></path></g><defs><mask id="SvgjsMask1008"><rect width="1440" height="560" fill="#ffffff"></rect></mask></defs></svg>